<?xml version="1.0" encoding="UTF-8"?>
<svg width="496px" height="120px" viewBox="0 0 496 120" version="1.1" xmlns="http://www.w3.org/2000/svg" xmlns:xlink="http://www.w3.org/1999/xlink">
    <title>cathay-en</title>
    <g id="Page-1" stroke="none" stroke-width="1" fill="none" fill-rule="evenodd">
        <g id="cathay-en" transform="translate(0.000000, 0.000000)" fill="#005D63" fill-rule="nonzero">
            <path d="M98.3754654,79.8344665 C97.8726237,77.9934464 92.5599921,78.7754282 88.170562,78.3738971 C84.1995041,78.0245651 79.0866179,77.2837402 72.9362482,75.145587 C67.194313,73.1238779 61.641192,70.8070434 56.8005956,68.1709917 C56.8005956,68.1709917 54.8200354,67.1229955 54.6103524,67.0075553 C54.2227867,66.7636252 53.9087591,66.58394 53.4903869,66.3410137 C53.2697726,66.1924472 52.8921444,65.9685936 52.6417174,65.8641955 C52.2948957,65.7055907 52.0752752,65.5249017 51.7721789,65.3452166 C51.4780265,65.1554931 51.0586605,64.9547276 50.7764332,64.7740386 C50.3153293,64.4879477 50.0430396,64.2871821 49.6236736,63.9689687 C49.3722528,63.7792453 49.2361079,63.7150003 48.89028,63.5252768 C48.680597,63.3877524 48.3139002,63.1749409 48.1151486,63.0484586 C47.7275829,62.7944902 47.4860996,62.5726443 47.0985339,62.3186759 C46.8471131,62.1279486 46.6791679,62.0225467 46.3969406,61.8418577 C46.1027882,61.6832529 45.8304984,61.4503648 45.5800713,61.2706797 C45.4429327,61.1642739 45.26505,61.0488337 45.1289051,60.9103055 C44.845684,60.6362605 44.5634566,60.3822921 44.2593666,60.1594423 C43.9970144,59.9476347 43.735656,59.6826241 43.4524349,59.4918969 C43.2954211,59.3553763 42.9913311,59.1014079 42.8243797,58.9739217 C42.3940824,58.6667504 42.1217926,58.4238241 41.6815577,58.1166528 C41.409268,57.9048452 41.1687785,57.6187543 40.8964887,57.3969083 C40.5715298,57.1650241 40.2883087,56.8990098 39.9524184,56.6882059 C39.7536668,56.518559 39.5131773,56.3388739 39.3561635,56.1591887 C39.1355491,55.9152585 38.9576664,55.7466155 38.7161832,55.5026853 C38.5492318,55.3230002 38.2550793,55.1111925 38.0771966,54.9315073 C37.7949693,54.5922135 37.4173411,54.2428815 37.0715133,53.9577944 C36.8518927,53.7459867 36.7882922,53.6506231 36.7048165,53.5452212 C36.6422097,53.4488537 36.5478027,53.3434518 36.4007265,53.184847 L36.0866988,52.8676374 C36.0032232,52.7933542 35.9187537,52.7190709 35.6882018,52.4861829 C35.6156574,52.4129035 35.4785188,52.2221762 35.3533053,52.0525293 C35.2489607,51.9150049 35.1436223,51.7664384 35.0909531,51.6921551 C34.8604012,51.4492288 34.7143187,51.3117044 34.5781738,51.1420575 C34.4728355,51.0256135 34.3585533,50.8991312 34.211477,50.7716451 C34.1280014,50.6772853 34.0544632,50.5708795 34.0017941,50.4644738 C33.9391873,50.3590719 33.8656492,50.2526661 33.7921111,50.1683446 C33.6559662,50.0097398 33.5615592,50.0739848 33.5307527,50.0940613 C33.4572145,50.1683446 33.4254143,50.2958307 33.5198213,50.486558 C33.6241659,50.6973618 33.7921111,50.9312537 33.8974494,51.0677743 C33.907387,51.0998968 33.9391873,51.1320192 33.9491249,51.1420575 C33.9809251,51.2163408 34.022663,51.2795819 34.0544632,51.3538652 C34.11707,51.4492288 34.1796768,51.5546307 34.232346,51.6610365 C34.4102287,51.8828824 34.5990428,52.0525293 34.746119,52.2322145 L34.9240017,52.4129035 C35.0283463,52.5393858 35.1336847,52.6668719 35.2171604,52.7933542 C35.3115674,52.9409169 35.4059745,53.0894834 35.531188,53.2270078 C35.5947885,53.2701724 35.6365264,53.3334135 35.6991331,53.4076968 C35.740871,53.4809762 35.8044715,53.5552595 35.8670783,53.639581 L36.160237,53.936714 C36.3172508,54.1053571 36.4951335,54.2639619 36.6422097,54.4024901 C36.7574857,54.507892 36.8936305,54.6454164 37.0297754,54.7829408 C37.343803,55.1633915 37.7005622,55.5558882 37.9837833,55.9263006 C38.1507347,56.1381083 38.4438934,56.2957093 38.6436388,56.4442758 C38.8841283,56.6139227 39.0312045,56.8678911 39.1991497,57.0796987 C39.3343008,57.2383035 39.6175219,57.4812299 39.7327978,57.6619189 C40.0577568,58.0744921 40.2883087,58.3174184 40.7176122,58.6145514 C40.9690331,58.815317 41.1687785,58.9739217 41.3784615,59.2499744 C41.4927437,59.3975371 41.8594405,59.7679495 42.0065167,59.9265543 C42.3523446,60.3822921 42.5093584,60.8149419 42.4566892,60.8149419 C42.2161997,60.8791868 41.6288886,60.3501696 41.2840544,60.138362 C40.989902,59.9476347 40.9481642,59.8733514 40.6868057,59.6625476 C40.6132676,59.5983026 40.1939017,59.2911313 40.0478192,59.1114461 C39.9315495,58.9950021 39.6175219,58.6667504 39.5131773,58.5302299 C39.0312045,57.9048452 38.8533218,57.8626844 38.2868796,57.3236289 C37.8675136,56.9110557 37.3756033,56.5506815 36.9671686,56.169227 C36.8518927,56.0638251 36.7256854,55.9263006 36.6104094,55.7988145 C36.4951335,55.6612901 36.3271883,55.533804 36.2129061,55.4183638 C36.0131607,55.1744337 35.7726712,54.7186958 35.5520569,54.5400145 C35.3115674,54.3593255 35.1436223,54.2117628 34.9130704,54.0099934 C34.8186633,53.9678327 34.746119,53.8614269 34.6725809,53.7881475 C34.5463736,53.7138643 34.4102287,53.6084623 34.326753,53.4809762 C34.0544632,53.1527245 33.7921111,52.7933542 33.5198213,52.4440221 C33.4045454,52.264337 33.2057937,52.1258087 33.0905178,51.9571657 C32.818228,51.5867532 32.5976137,51.1952604 32.3253239,50.8248479 C31.9476958,50.3269494 31.4140476,49.967579 31.0264819,49.4696805 C30.6697227,48.9617436 30.4292332,48.3584431 30.0834053,47.8294259 C29.9363291,47.5864996 29.6958396,47.4058106 29.5278945,47.205045 C29.4235498,47.0675206 29.3808182,46.9189541 29.287405,46.7713914 C29.0985909,46.4963426 28.8889079,46.1992096 28.6792249,45.9141225 C28.4387354,45.5647905 28.2707903,45.1411751 28.0193695,44.7607244 C27.9776316,44.6974833 27.8832246,44.4635914 27.7570173,44.2517837 C27.5900659,44.0510182 27.4529273,43.8402144 27.2859759,43.5651655 C27.1289621,43.2991512 27.034555,43.119466 26.9192791,42.9187005 C26.7831342,42.7279732 26.7095961,42.548288 26.6151891,42.4107636 C26.5416509,42.2832775 26.3637682,42.0403512 26.3011615,41.9339454 C26.0596782,41.5956555 26.007009,41.4159703 25.7665195,41.0766765 C25.6204371,40.8969913 25.4624295,40.7283483 25.3471535,40.7815511 C25.2428089,40.8548306 25.2736154,40.9712746 25.3054157,41.0666382 C25.3898851,41.3527291 25.3898851,41.3105684 25.5150987,41.5213722 C25.7039128,41.860666 25.7665195,42.0293091 25.9762025,42.3364804 C26.0596782,42.4950851 26.2276233,42.8444172 26.3637682,43.0461866 C26.4999131,43.2369139 26.6151891,43.4477177 26.7095961,43.6163608 C26.7930718,43.7970498 26.940148,44.2317072 27.0971618,44.4103885 C27.2015064,44.5378746 27.3386451,44.8239656 27.4221207,45.013689 C27.6318037,45.4061857 27.8722932,45.7233952 28.0819762,46.0305665 C28.2181211,46.284535 28.354266,46.5595838 28.4804733,46.8025101 C28.752763,47.2261254 29.077722,47.5965378 29.3500117,48.0201532 L29.8319845,48.9085407 C29.9889983,49.1524709 30.2195502,49.3542403 30.3656327,49.6082087 C30.5653781,49.8932958 30.6697227,50.2215475 30.8585367,50.5066345 C30.9946816,50.7505647 31.2043646,50.9523341 31.3514408,51.1952604 C31.6237306,51.5867532 31.8642201,51.9571657 32.1265723,52.3275781 C32.2835861,52.5393858 32.4724001,52.6979906 32.6184826,52.9097982 C32.818228,53.1948853 32.9851794,53.5120949 33.2057937,53.756025 C33.4572145,53.9999552 33.5198213,54.1485217 33.7295043,54.3703676 C34.0435319,54.7407801 34.7560566,55.7988145 34.6507182,55.7988145 C34.211477,55.8520174 33.3836764,54.8993848 33.0060483,54.5610949 C32.7446899,54.2860461 32.4405999,54.0842767 32.2517858,53.8303083 C31.979496,53.4388154 31.7698131,53.0152001 31.4975233,52.6558298 C31.3931787,52.5183054 31.2143022,52.4129035 31.1308265,52.2743752 C30.9320749,52.0314489 30.7541921,51.7664384 30.5335778,51.5345542 C30.4391708,51.4492288 30.3348262,51.3849838 30.261288,51.2795819 C29.9154602,50.8248479 29.6332328,50.3590719 29.287405,49.8932958 C29.1611977,49.7136106 28.9723836,49.5439637 28.8471701,49.3542403 C28.7418317,49.2167159 28.6792249,49.0681494 28.5748803,48.8985025 C28.4596044,48.6866948 28.2707903,48.4859292 28.144583,48.2741216 C28.0402384,48.1255551 27.9776316,47.956912 27.8722932,47.8294259 C27.7043481,47.5443388 27.4529273,47.3104469 27.2750445,47.0253599 C27.1388997,46.8025101 27.1080931,46.517423 26.9610169,46.2734929 C26.5833888,45.7123531 26.1640228,45.1200948 25.8082574,44.5378746 C25.7247817,44.3893081 25.6721125,44.2317072 25.5886368,44.0620603 C25.3054157,43.5962842 25.0231884,43.0983856 24.7190983,42.6225713 C24.61376,42.4529244 24.5720221,42.2521588 24.4458148,42.0925502 C24.3206013,41.860666 24.1109183,41.7120995 23.9857048,41.5002918 C23.8704288,41.3316488 23.8177596,41.1720402 23.7342839,40.992355 C23.6289455,40.7484248 23.4828631,40.4954602 23.3566558,40.2836526 C23.2831177,40.1250478 23.2413798,39.9764813 23.1469728,39.8389569 C22.8120763,39.2878554 22.5079863,38.6955971 22.2247652,38.0712162 C22.0578138,37.7429645 21.8371994,37.4578774 21.6901232,37.1296257 C21.5231718,36.7802937 21.3552267,36.3888008 21.1982129,36.0495071 C21.1038059,35.816619 21.0093988,35.5736927 20.9577234,35.3408047 C20.7798407,34.9493118 20.5065572,34.6310984 20.3396058,34.2396056 C20.2233361,33.9966793 20.1607293,33.7427109 20.0563847,33.5198611 C19.9828466,33.3933788 19.8675706,33.2769348 19.763226,33.3411798 C19.6797503,33.3933788 19.668819,33.4987807 19.7314257,33.7105884 C19.8357703,34.1231616 20.0454533,34.557819 20.1507917,34.7897032 C20.3604747,35.2343989 20.4439504,35.7112171 20.6536334,36.1559128 C20.7589717,36.3988391 20.9259231,36.6427693 21.0302677,36.8967377 L21.6076413,38.1665798 C21.7119859,38.3884258 21.8063929,38.6323559 21.9415441,38.8441636 C21.995207,38.981688 22.1094892,39.1192124 22.1621584,39.2356564 C22.2883657,39.5428277 22.3301035,39.8279148 22.4453795,40.1140057 C22.6023933,40.4000966 22.8220139,40.6430229 22.9273522,40.9291138 C23.6180142,42.3585646 24.2997324,43.7649273 25.127533,45.0458115 C25.3471535,45.4061857 25.4624295,45.8498775 25.6929814,46.2102517 C25.9444022,46.5907024 26.2594236,46.855713 26.4999131,47.2371675 C26.6777958,47.5443388 26.7413964,47.956912 26.8984102,48.2741216 C27.1806375,48.7609781 27.5165278,49.1835895 27.8096865,49.618247 C27.8832246,49.7557714 27.9040935,49.8932958 27.9875692,50.0097398 C28.0919138,50.189425 28.2499214,50.3801522 28.354266,50.5598374 C28.5013422,50.8037676 28.5748803,51.0677743 28.7418317,51.2795819 C28.9197144,51.5225082 29.1611977,51.7242776 29.3182115,51.9571657 C29.5487634,52.264337 29.6958396,52.613669 29.9154602,52.8987561 C30.072474,53.1105638 30.3030259,53.2581264 30.4600397,53.4709379 C30.7124543,53.7981858 31.5819927,54.9315073 31.8334136,55.2697973 C32.2001104,55.7466155 32.8808348,56.4763983 33.2057937,57.1108174 C33.3002007,57.3236289 33.6350973,57.7673208 33.5615592,57.8626844 C33.3836764,58.0002088 32.5350069,57.0586184 32.3879307,56.9110557 C32.0421028,56.5607198 31.7280752,56.0949437 31.4239852,55.7034509 C31.3405095,55.6090911 30.5127089,54.8150633 30.4391708,54.7186958 C30.3656327,54.6132939 30.2930883,54.4968499 30.2195502,54.3703676 C29.9780669,54.0421159 29.8419221,53.639581 29.6014326,53.301291 C29.4960942,53.184847 29.3500117,53.0794451 29.2456671,52.9409169 C29.0667906,52.6879523 28.9306458,52.4018614 28.752763,52.1378547 C28.4596044,51.745358 28.0819762,51.407068 27.7987551,50.9834527 C27.4638586,50.5598374 27.2432443,50.0418623 26.9292167,49.5861245 C26.7622653,49.3743168 26.5734512,49.1946317 26.426375,48.9617436 C26.3428993,48.8563417 26.3220304,48.7509398 26.2594236,48.644534 C26.1332163,48.4748871 25.9762025,48.2630795 25.9026644,48.0623139 C25.8082574,47.8816249 25.7456506,47.7230201 25.641306,47.5543771 C25.3153533,47.0253599 24.9705192,46.4642201 24.6455602,45.9241608 C24.498484,45.7023149 24.404077,45.427266 24.2579945,45.1833359 C24.0165113,44.8028852 23.6706834,44.4635914 23.4301939,44.0510182 C23.1161663,43.5852421 22.9690901,43.0251062 22.6759314,42.548288 C22.4771797,42.2411167 22.2356965,41.9560296 22.0578138,41.6488583 C21.8371994,41.3105684 21.7328548,40.9180717 21.5549721,40.5687397 C21.3760956,40.2625722 21.1356061,39.9654392 20.9885299,39.6592717 C20.8315161,39.3089358 20.7271715,38.981688 20.5701577,38.6323559 C20.4757506,38.4526707 20.3396058,38.2619435 20.2660677,38.0712162 C20.1607293,37.839332 20.1299228,37.5954018 20.0245844,37.3625138 C19.7423571,36.7160487 19.2911908,36.1027099 18.9980321,35.4682908 C18.7674802,35.0025147 18.5786662,34.5156582 18.4117148,34.0288018 C18.3272453,33.7637912 18.2745761,33.4987807 18.1493626,33.2558544 C17.8870104,32.6736343 17.5630452,32.0382113 17.2897617,31.4349108 C17.1854171,31.1277395 17.0701412,30.8004917 16.9657965,30.5043625 C16.9548652,30.4089988 16.9339963,30.3136352 16.8922584,30.2293137 C16.7660511,29.9542649 16.6199687,29.6892543 16.5146303,29.4132017 C16.3993543,29.0859539 16.2950097,28.7687443 16.1896714,28.4294505 C15.7812367,27.3924964 15.393671,26.2170141 15.0061053,25.127861 C14.9643674,24.9260916 14.9434985,24.6932036 14.8699604,24.4813959 C14.6811463,23.92126 14.4714634,23.3490782 14.2727117,22.7889423 C14.1574358,22.5028514 13.885146,22.6082533 13.9586841,22.8943442 C14.0312285,23.2747949 14.094829,23.3812007 14.1365668,23.6773299 C14.1683671,23.8469767 14.1991736,23.9845012 14.2309739,24.1330677 C14.2727117,24.3227911 14.3780501,24.5245605 14.4297255,24.6932036 C14.5340701,25.0324973 14.5450015,25.3497069 14.6602774,25.6890007 C14.8172912,26.1226543 14.974305,26.5773883 15.1313188,27.0331261 C15.1740504,27.2439299 15.2157883,27.4768179 15.2575261,27.7207481 C15.3410018,27.9315519 15.4145399,28.1654438 15.488078,28.3561711 C15.7076986,28.9273491 15.9382505,29.4563663 16.1270646,30.0275443 C16.2006027,30.3457577 16.2950097,30.6629673 16.3784854,31.0022611 C16.4728925,31.1809424 16.6090373,31.3616314 16.6617065,31.5413166 C16.7451822,31.678841 16.7561136,31.8374458 16.8187203,32.0060888 C16.9657965,32.3564247 17.1019414,32.7378793 17.2480239,33.0972496 C17.3841688,33.3933788 17.5630452,33.7005501 17.6773274,34.0288018 C17.7299966,34.1663262 17.7299966,34.3038506 17.7826658,34.4524171 C18.1175623,35.4150879 18.5051281,36.4199195 18.9036251,37.3193492 C19.0089635,37.5522372 19.03977,37.775087 19.134177,38.0180133 C19.2186465,38.2087406 19.34386,38.3884258 19.4173981,38.5901951 C19.459136,38.7066392 19.5008738,38.8331215 19.553543,38.9706459 C19.6797503,39.2246143 19.8785019,39.447464 20.0136531,39.7014325 C20.3704123,40.4422574 20.6745023,41.1509598 21.1038059,41.7863827 C21.5231718,42.3585646 21.6901232,43.1616268 21.995207,43.871333 C22.151227,44.1885426 22.3301035,44.4746335 22.5189176,44.7607244 C22.6123309,44.9082871 22.6759314,45.0990144 22.7484757,45.2475809 C22.9372898,45.6069512 23.0426282,45.9241608 23.3049804,46.2423742 C23.4828631,46.517423 23.4610004,46.5907024 23.6180142,46.9510766 C23.6607458,47.0564785 23.8485661,47.7551426 23.8068283,47.7551426 C23.7442215,47.7973034 23.4083312,47.5864996 23.3049804,47.4479713 C23.1370352,47.2793283 22.895552,47.0564785 22.7276068,46.6760278 C22.6441311,46.4642201 22.4771797,46.1460067 22.3927103,45.9673254 C22.1830273,45.5015493 21.8063929,45.1200948 21.5549721,44.6974833 C21.387027,44.4635914 21.3134888,44.1674622 21.177344,43.9034555 C20.9577234,43.4155952 20.6953712,42.9187005 20.4648193,42.4107636 C20.3704123,42.2099981 20.2233361,42.0192708 20.0981225,41.8175014 C19.9828466,41.6388201 19.9202398,41.4159703 19.7840949,41.2142009 C19.5326741,40.7915894 19.2186465,40.3258133 19.0089635,39.8600373 C18.8519497,39.5107052 18.7674802,39.1613731 18.6104664,38.8331215 C18.5687286,38.7277195 18.4743216,38.6213138 18.4117148,38.5159119 C18.3063764,38.346265 18.2646386,38.1665798 18.1602939,37.9658143 C18.045018,37.7008037 17.8770729,37.4578774 17.740928,37.1828286 C17.4994447,36.6528076 17.3533623,36.1127482 17.111879,35.6058152 C16.996603,35.3408047 16.7978514,35.128997 16.6935068,34.896109 C16.5354992,34.5256965 16.5046927,34.0599204 16.3059411,33.6684276 C15.8756438,32.6415118 15.3519332,31.5834773 14.9434985,30.4832821 C14.8908293,30.3025931 14.8699604,30.0917893 14.8172912,29.9111003 C14.6503398,29.4252476 14.4297255,28.9905902 14.2409114,28.5348524 C14.1683671,28.3240486 14.1574358,28.1433596 14.094829,27.9315519 C13.979553,27.6043041 13.8225392,27.2650103 13.7072633,26.9588428 C13.675463,26.8524371 13.6645317,26.7259548 13.6227938,26.619549 C13.4975803,26.3344619 13.4131108,25.9740878 13.276966,25.6679203 C13.2034278,25.5083117 13.0782143,25.3386648 13.0255451,25.1700217 C12.9003316,24.8528122 12.9321318,24.4813959 12.8377248,24.1641863 C12.680711,23.7204944 12.5018345,23.2436763 12.3338894,22.8200609 C12.261345,22.5670963 12.2404761,22.3231662 12.1351377,22.0691978 C12.0307931,21.7730686 11.9254547,21.4448169 11.8211101,21.1697681 C11.7058342,20.8515547 11.7157718,20.5554255 11.6114271,20.2271738 C11.558758,19.9842475 11.4544133,19.719237 11.3600063,19.5184714 C11.2139238,19.0737757 11.1503233,18.6180379 11.0042409,18.2265451 C10.9933095,18.174346 10.9615093,18.0890207 10.9307028,18.0157413 C10.8879711,17.8982934 10.8044955,17.7928915 10.7001508,17.825014 C10.5848749,17.8671747 10.5848749,18.0358178 10.5848749,18.1422236 C10.6156814,18.4383527 10.7309573,18.7244437 10.8253644,18.9894542 C10.9098338,19.2434226 10.9724406,19.5285097 11.0350474,19.783482 C11.0767852,19.9621633 11.0668476,20.1318102 11.1085855,20.3124992 C11.1711922,20.5664676 11.2556617,20.7993557 11.328206,21.0533241 C11.3918066,21.27517 11.3600063,21.5391767 11.4126755,21.7198657 C11.5696893,22.2488829 11.7366407,22.8521834 11.9155172,23.3490782 C11.9890553,23.6140887 12.0099242,23.92126 12.0834623,24.1330677 C12.1878069,24.4181547 12.2712826,24.6932036 12.3656896,24.947172 C12.4501591,25.1911021 12.471028,25.3818294 12.5545037,25.5926332 C12.6598421,25.8365634 12.7850556,26.0584093 12.8585937,26.3234198 C12.9420694,26.6416332 12.9420694,26.9688811 13.046414,27.2650103 C13.2461595,27.7839892 13.46578,28.2497653 13.6337252,28.7466601 C13.6963319,28.916307 13.7072633,29.1070342 13.76987,29.2877232 C13.9268838,29.6992926 14.0312285,30.1550304 14.1683671,30.5776419 C14.398919,31.159862 14.6811463,31.7531242 14.8699604,32.3453826 C15.1005123,32.9276027 15.1313188,33.6262668 15.3618707,34.1663262 C15.488078,34.441375 15.7394989,34.6110219 15.8547748,34.8649903 C15.9491819,35.0436716 15.9173816,35.2243606 15.9799884,35.4361683 C16.0435889,35.6590181 16.1479335,35.8698219 16.2214716,36.0816296 C16.2741408,36.2823951 16.32681,36.4620803 16.3784854,36.6427693 C16.4728925,36.8646152 16.6408376,37.0764229 16.7143757,37.2882305 C16.8713895,37.6365588 16.9657965,38.0180133 17.1546106,38.3151463 C17.2897617,38.5480344 17.4895071,38.7698803 17.625652,39.0449291 C17.7617969,39.33102 17.8035347,39.6482296 17.9188107,39.9443588 C18.1175623,40.3890545 18.3689832,40.8016277 18.5160594,41.2784459 C18.6730732,41.679977 18.7257424,42.1357148 18.9354254,42.4950851 C19.1133081,42.8765397 19.3746665,43.2037875 19.5843495,43.5651655 C19.7006192,43.8402144 19.8149014,44.0941828 19.9411087,44.3893081 C20.0454533,44.5800354 20.2342674,44.7918431 20.3704123,45.013689 C20.5065572,45.2786995 20.6745023,45.5748287 20.7897783,45.8498775 C20.8941229,46.0727273 20.9259231,46.2734929 21.0302677,46.4642201 C21.2190818,46.7392689 21.3552267,46.9831991 21.5331094,47.2682862 C21.6901232,47.5122163 21.8689997,47.840468 21.9842757,48.1255551 C22.0786827,48.3694852 22.1621584,48.5913312 22.2883657,48.7920967 C22.4344481,48.982824 22.6123309,49.1735513 22.7276068,49.3642785 C22.8538141,49.5760862 23.0108279,50.2747503 22.9372898,50.2958307 C22.8120763,50.3480298 22.3927103,49.9565369 22.2674968,49.8190125 C21.9524754,49.3953972 21.7745927,48.86638 21.4913716,48.4437685 C21.1674064,47.9779924 20.967661,47.7230201 20.7271715,47.1940029 C20.5800953,46.8878354 20.3396058,46.3477761 20.1507917,46.0616852 C19.9828466,45.8087206 19.763226,45.5748287 19.6370187,45.2887378 C19.5326741,45.0668919 19.4700673,44.7707627 19.3746665,44.5378746 C19.2186465,44.1995847 18.9036251,43.9777388 18.7466113,43.6494871 C18.5478597,43.2569904 18.4743216,42.8444172 18.2745761,42.4639665 C18.1911005,42.3053617 18.0549556,42.1045961 17.9814175,41.9138689 C17.8770729,41.679977 17.8144661,41.4581311 17.7091277,41.225243 C17.4895071,40.7484248 17.1546106,40.356932 16.9548652,39.8710794 C16.7143757,39.3842229 16.5881684,38.8752822 16.3367476,38.3673454 C16.2214716,38.1244191 16.0117886,37.8804889 15.8865751,37.6054401 C15.7076986,37.256108 15.6351543,36.8967377 15.4572715,36.5373674 C15.3618707,36.3255597 15.2157883,36.1127482 15.1104499,35.9019444 C14.974305,35.6058152 14.9216358,35.2564831 14.7864847,34.9382697 C14.4505944,34.2084869 14.1365668,33.4787042 13.8116079,32.7479175 C13.6963319,32.4628305 13.6645317,32.1867778 13.5293805,31.8906486 C13.4240422,31.6467185 13.2878973,31.4248725 13.1726213,31.159862 C12.9003316,30.524439 12.7949932,29.7735759 12.5127659,29.1391567 C12.3656896,28.8099012 12.1977445,28.5037338 12.0625934,28.1654438 C11.8737793,27.6043041 11.7793723,27.0431644 11.5905582,26.4830285 C11.2864682,25.6257595 11.0350474,24.7152878 10.7309573,23.8901413 C10.6474817,23.6140887 10.6266127,23.3812007 10.543137,23.117194 C10.44873,22.8622217 10.3652543,22.6082533 10.2698535,22.365327 C10.2072468,22.1745997 10.1655089,21.8674284 10.1029021,21.61346 C9.88228781,20.8836772 9.66266724,20.1639327 9.42118398,19.4341499 C9.37944614,19.2534609 9.35857721,18.9573317 9.29597044,18.7144054 C9.27510152,18.5979614 9.19063207,18.4383527 9.16976315,18.3329508 C9.10715638,18.174346 9.10715638,18.0358178 9.06541853,17.8571365 C8.86666689,17.3271154 8.73052201,16.7027345 8.55164552,16.1737173 C8.52083902,16.0151125 8.50990768,15.7711824 8.44730091,15.5704168 C8.20681141,14.8295919 8.0905417,13.8980398 7.80831436,13.2003795 C7.74570759,13.0728933 7.66123814,12.9343651 7.52509326,12.9664876 C7.38894838,12.9986101 7.42074865,13.1471766 7.43068623,13.2636206 C7.47242407,13.622991 7.59863137,13.9090819 7.66123814,14.2052111 C7.68210706,14.3216551 7.68210706,14.5013403 7.68210706,14.6489029 C7.71390733,14.7874312 7.73477625,14.9570781 7.7765141,15.0735221 C7.91265897,15.5282561 8.05973519,16.0572733 8.19588007,16.5120073 C8.23761792,16.7238149 8.20681141,17.0530704 8.25848684,17.2949929 C8.44730091,18.0046992 8.58344579,18.8619681 8.85573554,19.5184714 C9.10715638,20.0896494 9.14889423,20.7993557 9.29597044,21.4337748 C9.35857721,21.6977815 9.37944614,21.9738341 9.40031506,22.259925 C9.45298425,22.5128896 9.60006047,22.714659 9.68353616,22.936505 C9.74614293,23.1061519 9.74614293,23.2436763 9.79881211,23.402281 C9.92501941,23.8580189 10.029364,24.3227911 10.2072468,24.7785289 C10.3125851,25.0957385 10.4795365,25.4029098 10.5848749,25.7201194 C10.6474817,25.8476055 10.6156814,25.9740878 10.6574192,26.1226543 C10.7309573,26.4398639 10.7945579,26.7570734 10.8989025,27.074283 C11.1085855,27.6896294 11.3182685,28.3762476 11.537889,28.9905902 C11.6640963,29.3499606 11.6949028,29.6892543 11.8211101,30.0275443 C12.3030829,31.3616314 12.8158621,32.7167989 13.2878973,34.0498822 C13.3823043,34.3359731 13.4548487,34.6310984 13.5293805,34.9171893 C13.6337252,35.2243606 13.8116079,35.4994094 13.9477528,35.7533779 C14.1156979,36.1127482 14.1365668,36.4731224 14.2727117,36.8435348 C14.4297255,37.256108 14.6394085,37.5954018 14.7864847,38.0501358 C14.8590291,38.2619435 14.9434985,38.4948315 15.0379056,38.7066392 C15.1104499,38.8752822 15.2575261,39.0238487 15.3410018,39.1613731 C15.4463402,39.4364219 15.4672091,39.785754 15.603354,40.0397224 C15.7285675,40.3147712 15.9491819,40.5165406 16.0962581,40.7815511 C16.2532719,41.0033971 16.2632095,41.289488 16.3784854,41.563533 C16.5772371,41.9660679 16.7978514,42.3364804 16.9757341,42.7811761 C17.0592098,42.9618651 17.1019414,43.1305081 17.1754795,43.2991512 C17.2480239,43.4898785 17.415969,43.6916478 17.4994447,43.8924134 C17.4994447,43.8924134 17.5203136,43.8924134 17.5203136,43.9034555 C17.531245,43.9456163 17.531245,43.9777388 17.5521139,44.0188957 C17.5630452,44.1142593 17.5938518,44.2196612 17.625652,44.2949483 C17.6673899,44.4103885 17.8035347,44.6121579 17.8452726,44.6854373 C17.8770729,44.7286019 17.9714799,44.8350077 18.045018,44.9293675 C18.0867558,44.9725321 18.1175623,45.013689 18.1493626,45.0668919 C18.3272453,45.3319024 18.3381767,45.7444756 18.4842591,46.0406048 C18.6213978,46.3477761 18.8728186,46.5907024 19.0298324,46.8878354 C19.134177,47.1307618 19.1868462,47.7230201 19.0606389,47.7340623 C18.4633902,47.7340623 18.4117148,46.8878354 18.2229007,46.453178 C18.045018,46.0938077 17.8144661,45.8087206 17.625652,45.4694268 C17.5938518,45.4061857 17.531245,45.2786995 17.4895071,45.1411751 C17.4467755,45.0347694 17.3951001,44.9082871 17.3533623,44.8028852 C17.2798241,44.6442804 17.2798241,44.6543187 17.2380863,44.5489168 C17.1754795,44.442511 17.0075344,44.2317072 16.9548652,44.1142593 L16.9548652,44.0941828 C16.7143757,43.7338086 16.5563681,43.2037875 16.3784854,42.9498191 C16.2950097,42.8022564 16.1688024,42.664732 16.0853267,42.5171694 C15.9382505,42.2832775 15.8547748,41.9981904 15.7394989,41.7120995 C15.6242229,41.4892497 15.4463402,41.2463234 15.3410018,41.0033971 C15.2048569,40.7062641 15.183988,40.3258133 15.0478431,40.018642 C14.974305,39.8600373 14.8381602,39.6903904 14.7656158,39.5428277 C14.608602,39.1824535 14.5032636,38.8120411 14.3253809,38.4737511 C14.2409114,38.3041042 14.1256355,38.1555377 14.0312285,37.9868947 C13.9060149,37.7008037 13.8225392,37.3946363 13.675463,37.1085454 C13.3614354,36.5474056 13.0255451,35.9230248 12.7641867,35.3197243 C12.6171105,34.9493118 12.5545037,34.5889377 12.3974899,34.2396056 C12.2712826,33.9434764 12.0933999,33.6373089 11.957255,33.3612563 C11.8737793,33.170529 11.8419791,32.9808056 11.7684409,32.78004 C11.6432274,32.430708 11.4961512,32.0813759 11.3600063,31.7420821 C11.2864682,31.5302745 11.2238614,31.0022611 11.1711922,30.7904534 C11.0668476,30.5465233 10.9406403,30.2704706 10.8362957,30.0275443 C10.6782882,29.6571319 10.6156814,29.2666429 10.44873,28.8851883 C10.333454,28.6101395 10.1973092,28.2919261 10.0820332,28.006839 C9.98762618,27.7528706 9.97669484,27.5300208 9.87235022,27.2870945 C9.79881211,27.1174476 9.68353616,26.9056399 9.63086697,26.7259548 C9.5374537,26.5141471 9.49472209,26.153773 9.42118398,25.867682 C9.31683937,25.5504725 9.18069449,25.244305 9.08628746,24.9260916 C9.01274935,24.6932036 9.01274935,24.1431059 8.93921124,24.0055815 C8.61524605,23.0328724 8.31115603,21.9738341 7.99712842,20.9890791 C7.88085871,20.5554255 7.80831436,20.0896494 7.67216948,19.6459575 C7.63043163,19.4652686 7.63043163,19.2434226 7.57776245,19.0627336 C7.493293,18.7886886 7.36807946,18.4805135 7.29454135,18.2165068 C7.24187216,18.0046992 7.21106566,17.8039336 7.16932781,17.6132063 C7.11665862,17.4124408 7.01132025,17.1905948 6.9387759,16.9888255 C6.74996183,16.4066053 6.6555548,15.7711824 6.48760966,15.2110465 C6.41407155,14.9570781 6.41407155,14.6489029 6.36239612,14.427057 C6.13184421,13.7183546 6.06923744,12.9032464 5.88042337,12.1313029 C5.83868553,11.9184914 5.78601634,11.7076876 5.74427849,11.4958799 C5.38751929,10.1095938 5.2205679,8.54261864 4.82207085,7.19849326 C4.74853274,6.94452483 4.83300219,6.62731526 4.79027058,6.34222817 C4.69586355,6.03505688 4.61238786,5.74896596 4.51798083,5.47391716 C4.47624298,5.32535065 4.47624298,5.2189449 4.44444272,5.08242433 C4.37189836,4.83849418 4.26655999,4.65880901 4.16221538,4.6909315 C4.01513916,4.75417265 4.03600808,4.89169705 4.03600808,5.08242433 C4.056877,5.3996339 4.08867727,5.64356405 4.16221538,5.89753247 C4.19401564,6.12941669 4.17215296,6.28802147 4.22482214,6.48979085 C4.35003568,6.91340617 4.40270487,7.52674494 4.45537406,7.91823776 C4.48618056,8.08788466 4.47624298,8.29969232 4.50704948,8.50045787 C4.54978109,8.69118514 4.69586355,8.97727606 4.74853274,9.17804161 C4.79027058,9.4741708 4.79027058,9.85562535 4.82207085,10.1517545 C4.87474003,10.4167651 4.94728439,10.6707335 5.03175384,10.9247019 C5.08442302,11.1355058 5.03175384,11.3473134 5.10529195,11.5490828 C5.15696737,11.7608905 5.28317467,11.9506139 5.31398118,12.1624216 C5.35571902,12.4374704 5.31398118,12.7978445 5.36665036,13.0096522 C5.67074038,14.2473718 5.75421608,15.6768226 6.12190663,16.8723814 C6.16265071,17.0530704 6.16265071,17.2217135 6.20438856,17.3803183 C6.50947234,18.4072341 6.72909291,19.5285097 7.04312051,20.5554255 C7.07492078,20.703992 7.07492078,20.8726351 7.11665862,21.0533241 C7.22100324,21.4126944 7.29454135,21.8041872 7.36807946,22.1745997 C7.42074865,22.3332045 7.42074865,22.481771 7.45155515,22.6403758 C7.55689352,23.0328724 7.70297599,23.3922428 7.8192457,23.7726935 C7.87092113,23.9533825 7.88085871,24.1119873 7.91265897,24.3027146 C7.94445924,24.4502772 8.01799735,24.608882 8.05973519,24.7353643 C8.12234196,24.9582141 8.10147304,25.1700217 8.16407981,25.3497069 C8.20681141,25.477193 8.31115603,25.5926332 8.34196253,25.7311615 C8.38469414,25.9419653 8.41550064,26.153773 8.47910117,26.3766227 C8.55164552,26.6416332 8.68878416,26.8956017 8.80306636,27.1495701 C8.88753581,27.3613778 8.88753581,27.5721816 8.96008016,27.7839892 C9.11808772,28.1654438 9.27510152,28.578017 9.40031506,28.9594716 C9.52652236,29.2766811 9.5374537,29.5938907 9.66266724,29.9221424 C9.73620535,30.1229079 9.81968104,30.3457577 9.89321915,30.5575654 C9.94588833,30.7262084 9.97669484,30.8747749 10.029364,31.0544601 C10.0919708,31.2130649 10.2599159,31.4670333 10.3652543,31.6577606 C10.4377987,31.8906486 10.4069922,32.1867778 10.4795365,32.430708 C10.5530746,32.6846764 10.6892195,32.8754037 10.7836265,33.0972496 C10.8571646,33.3411798 10.8571646,33.5630257 10.9098338,33.805952 C10.9724406,33.9966793 11.0976541,34.1663262 11.1711922,34.3359731 C11.2447304,34.5256965 11.3182685,34.7375042 11.3918066,34.9171893 C11.4335444,35.0557176 11.558758,35.1922382 11.6114271,35.3307664 C11.7058342,35.5526123 11.8002412,35.7955386 11.8837169,36.0394688 C12.0307931,36.3566784 12.051662,36.7913358 12.1560067,37.1717865 C12.1878069,37.2771884 12.166938,37.5522372 12.0933999,37.5733176 C11.9463237,37.5954018 11.7684409,37.3514717 11.6640963,37.203909 C11.4961512,36.9599788 11.3182685,36.6528076 11.1821236,36.3466401 C11.139392,36.2301961 11.1085855,36.1247941 11.0767852,36.0073463 C10.9933095,35.7533779 10.8989025,35.4682908 10.7836265,35.1922382 C10.7210198,35.0436716 10.6156814,34.8649903 10.5530746,34.6953434 C10.4695989,34.4524171 10.5113368,34.1552841 10.4169297,33.9434764 C10.3443854,33.7637912 10.1973092,33.6262668 10.1029021,33.4465817 C10.0502329,33.2769348 10.029364,33.0972496 9.95582592,32.9486831 C9.87235022,32.7479175 9.76701185,32.5682324 9.64179831,32.3875434 C9.5682602,32.2078582 9.5682602,32.028173 9.50565343,31.7962888 C9.43211532,31.5523587 9.35857721,31.2973864 9.2542326,31.0755405 C9.14889423,30.8326142 9.00281176,30.6097644 8.89747339,30.3457577 C8.85573554,30.2293137 8.82393528,30.0917893 8.78219743,29.9542649 C8.71959067,29.7735759 8.62518363,29.5617682 8.55164552,29.4132017 C8.52083902,29.2666429 8.48903875,29.1281146 8.43736333,28.9905902 C8.34196253,28.7888208 8.23761792,28.578017 8.16407981,28.3561711 C8.10147304,28.1754821 8.0905417,27.9957969 8.01799735,27.8161117 C7.91265897,27.5089404 7.8192457,27.1596084 7.71390733,26.8524371 C7.64036922,26.6095108 7.63043163,26.3766227 7.55689352,26.1437347 C7.46248649,25.867682 7.34721054,25.5926332 7.2528035,25.3185883 C7.16932781,25.0957385 7.14845889,24.8417701 7.08485836,24.6299624 C6.98051374,24.3227911 6.83343753,24.0587844 6.72909291,23.740571 C6.66549238,23.4876064 6.66549238,23.2436763 6.62375454,23.0107882 C6.44587181,22.4285681 6.25705775,21.794149 6.06923744,21.2008868 C5.88042337,20.5343451 5.84862311,19.7724398 5.64987146,19.1048944 C5.52366416,18.6401221 5.36665036,18.1843843 5.2205679,17.7196121 C5.15696737,17.4656436 5.15696737,17.2317518 5.10529195,16.9888255 C4.96815331,16.4808886 4.79027058,15.7711824 4.61238786,15.2321269 C4.51798083,14.9359977 4.53884975,14.6388647 4.45537406,14.3216551 C4.37189836,14.0144838 4.35003568,13.6440713 4.26655999,13.3057814 C4.19401564,13.0939737 4.13041511,12.9664876 4.08867727,12.6914388 C4.0260705,12.4374704 4.03600808,12.1202608 3.99427023,11.9184914 C3.95253239,11.7076876 3.60670452,10.5432474 3.57490426,10.3314397 C3.54409775,10.1306742 3.54409775,9.71709712 3.52322883,9.60165693 C3.5023599,9.49525118 3.32348342,8.97727606 3.31354584,8.87087031 C3.28174557,8.73334591 3.28174557,8.5847794 3.21913881,8.30973059 C3.17740096,8.04572389 3.03032474,7.48458417 2.99852448,7.31493728 C2.96771797,7.15733632 2.96771797,6.80700043 2.93591771,6.65943775 C2.9051112,6.46871047 2.79977283,6.09829803 2.72623472,5.82324922 C2.63182769,5.49499754 2.71629714,5.13462337 2.61095876,4.81841763 C2.54835199,4.57448748 2.45394496,4.36167599 2.37046927,4.12979178 C2.32873142,3.9390645 2.26612465,3.68509608 2.26612465,3.55861378 C2.23432439,3.39900517 2.23432439,3.01855444 2.22339305,2.88002621 C2.22339305,2.69030276 2.13991736,2.38313147 2.11904843,2.09804438 C2.09817951,1.73767021 2.01371006,1.325097 1.95110329,1.10224724 C1.91930303,0.965726662 1.93023437,0.796079769 1.90936544,0.679635748 C1.80402707,0.320265408 1.7106138,-0.0300704817 1.51086839,0.00205200681 C1.38565485,0.0120902845 1.33298566,0.118496028 1.39559243,0.372464452 C1.46913054,0.64751326 1.48999947,0.869359196 1.56353758,1.16548839 C1.62614435,1.31505872 1.62614435,1.68446734 1.63707569,1.81195347 C1.63707569,2.0227573 1.64800703,2.05487979 1.67881353,2.24560706 C1.67881353,2.31989032 1.7106138,2.52065587 1.72055138,2.6049774 C1.75235164,2.73246353 1.80402707,2.91315253 1.80402707,3.01855444 L1.80402707,3.45220804 C1.80402707,3.55861378 1.80402707,3.58973244 1.82588975,3.75937933 C1.87756518,3.9280224 1.88849652,3.9390645 1.90936544,4.08763101 C1.91930303,4.21411331 1.90936544,4.33055733 1.90936544,4.42592097 C1.90936544,4.55240327 1.93023437,4.65880901 1.96104087,4.79633341 C2.03557274,5.04026356 2.20252413,5.3885918 2.13991736,5.73892769 C2.06637925,6.12941669 2.17072386,6.48979085 2.26612465,6.80700043 C2.3078625,7.02985019 2.26612465,7.26273823 2.3078625,7.45246168 L2.51754549,8.34185308 C2.58015226,8.60585978 2.54835199,8.81766744 2.61095876,9.04051721 C2.69542821,9.36876889 2.92598012,9.81346459 2.93591771,9.94095071 C2.96771797,10.0985517 2.94684905,10.4910483 2.99852448,10.7440129 C3.04026232,10.9879431 3.10386285,11.274034 3.11479419,11.442677 C3.13566311,11.5802015 3.11479419,11.664523 3.13566311,11.7709287 C3.1456007,11.8873727 3.31354584,12.4485125 3.33441476,12.597079 C3.36621502,12.7556838 3.35528368,12.8289632 3.38708395,12.9775297 C3.41789045,13.1250924 3.54409775,13.7283929 3.56496667,13.9301623 C3.59577318,14.1208895 3.57490426,14.2473718 3.60670452,14.427057 C3.68024263,14.7452704 3.80545617,14.9881967 3.85812535,15.2742876 C3.91079454,15.4961336 3.88893186,15.6236197 3.92073212,15.8033049 C3.98433265,16.0683154 4.06780834,16.3112417 4.11948377,16.5652101 C4.16221538,16.7659757 4.16221538,16.9677451 4.19401564,17.1574685 C4.27749133,17.5921259 4.3400981,18.0358178 4.45537406,18.4704752 C4.53884975,18.7244437 4.68592597,18.96737 4.75946408,19.2113001 C4.82207085,19.4341499 4.83300219,19.6660341 4.89560896,19.8888839 C4.94728439,20.0896494 5.08442302,20.2693346 5.13609845,20.4911805 C5.1778363,20.6407509 5.15696737,20.8304743 5.18876764,21.0212016 C5.25137441,21.2219671 5.34578144,21.4126944 5.36665036,21.6455825 C5.41931955,21.794149 5.38751929,21.9417116 5.41931955,22.1113585 C5.47198874,22.2910437 5.56540201,22.4496485 5.60813361,22.6192954 C5.64987146,22.8521834 5.64987146,23.0961136 5.71247823,23.2968791 C5.775085,23.5608858 5.88042337,23.8148543 5.96389906,24.0587844 C6.04737476,24.2806303 6.01656825,24.5245605 6.0583061,24.7684906 C6.20438856,25.296504 6.38326504,25.8787241 6.56114777,26.3655806 C6.64462346,26.619549 6.62375454,26.9056399 6.69729265,27.190727 C6.77083076,27.371416 6.86523779,27.5089404 6.9387759,27.6775835 C7.00138267,27.8472304 6.95964482,28.0379577 7.00138267,28.2186467 C7.08485836,28.5569366 7.13752755,28.9795481 7.2528035,29.2877232 C7.35814188,29.6360515 7.56683111,29.9432228 7.70297599,30.2704706 C7.8192457,30.6308448 7.84011462,31.0022611 7.94445924,31.3616314 C8.05973519,31.678841 8.20681141,31.9960505 8.33202495,32.2600572 C8.43736333,32.5361099 8.40556306,32.8754037 8.50990768,33.1394104 C8.59437713,33.4465817 8.80306636,33.6684276 8.92927365,33.9755989 C9.07634987,34.3138889 9.14889423,34.6632209 9.2542326,35.012553 C9.28603286,35.1611195 9.31683937,35.2986439 9.34863963,35.4682908 C9.48478451,35.9019444 9.71533642,36.2823951 9.87235022,36.7060104 C9.92501941,36.9178181 9.94588833,37.0764229 9.99756376,37.256108 C10.1029021,37.5733176 10.239047,37.8804889 10.3751919,38.1987023 C10.5004054,38.4526707 10.6574192,38.7066392 10.7836265,38.981688 C10.8989025,39.2246143 10.9098338,39.4785827 11.0350474,39.733555 C11.1085855,39.9764813 11.2238614,40.2515301 11.328206,40.4954602 C11.3918066,40.654065 11.3918066,40.7915894 11.4643509,40.9602325 C11.747572,41.6388201 12.1252002,42.3154 12.4392278,42.9929837 C12.6171105,43.3523541 12.6906486,43.754889 12.8585937,44.1253014 C12.9947386,44.4314689 13.1517524,44.6974833 13.2878973,45.013689 C13.3614354,45.2154584 13.3922419,45.4061857 13.4866489,45.5959091 C13.6436627,45.9552795 13.885146,46.3266957 14.0520974,46.7081503 C14.094829,46.7814297 14.2200425,47.1729225 14.1574358,47.3325311 C14.1574358,47.3425694 14.1365668,47.3746919 14.1256355,47.3746919 C14.0212909,47.4058106 13.7808014,47.2261254 13.6645317,47.0996431 C13.2242968,46.6659895 13.1517524,45.8498775 12.8685313,45.2887378 C12.7850556,45.1411751 12.680711,44.96149 12.5853102,44.7918431 C12.5435724,44.6753991 12.5227035,44.5699971 12.471028,44.4635914 C12.2712826,44.0941828 12.051662,43.7870115 11.8837169,43.3844765 C11.7684409,43.119466 11.7366407,42.8022564 11.6322961,42.548288 C11.1185231,41.4681693 10.5530746,40.4322191 10.0919708,39.3631425 C9.87235022,38.8752822 9.81968104,38.3041042 9.64179831,37.775087 C9.52652236,37.4679157 9.32777071,37.203909 9.21150099,36.9178181 C9.10715638,36.68493 9.08628746,36.4309616 8.9710115,36.2091157 C8.82393528,35.8909023 8.62518363,35.6158535 8.52083902,35.2665214 C8.44730091,35.0557176 8.41550064,34.8328678 8.33202495,34.6310984 C8.23761792,34.37713 8.06967278,34.1864027 7.97526574,33.9755989 C7.84011462,33.6262668 7.80831436,33.2879769 7.68210706,32.8954802 C7.63043163,32.7057568 7.55689352,32.4728687 7.47242407,32.2821415 C7.42074865,32.1124946 7.39987972,31.9328094 7.34721054,31.7531242 C7.21106566,31.3395472 6.97057616,30.9801768 6.80263102,30.5776419 C6.69729265,30.2925548 6.72909291,29.9432228 6.62375454,29.6671701 C6.51940992,29.4453242 6.3415272,29.2666429 6.23618882,29.032751 C6.15271313,28.7888208 6.23618882,28.4926916 6.16265071,28.2076046 C6.09010636,27.9315519 5.98476799,27.6775835 5.89135471,27.4246189 C5.84862311,27.2439299 5.83868553,27.0863289 5.775085,26.9377624 C5.64987146,26.5884304 5.53459551,26.2601787 5.41931955,25.9419653 C5.36665036,25.763284 5.36665036,25.6137136 5.29311225,25.4450705 C5.20963656,25.2653854 5.05262276,25.0846964 4.97908465,24.8528122 C4.89560896,24.5345988 4.87474003,24.1963088 4.80120192,23.8580189 C4.66505704,23.4554839 4.51798083,23.1061519 4.40270487,22.6935786 C4.35003568,22.5670963 4.35003568,22.4396102 4.32916676,22.3020858 C4.22482214,21.9316734 4.17215296,21.5191002 4.08867727,21.1697681 C4.03600808,20.9890791 4.056877,20.8304743 4.01513916,20.6618312 C3.91079454,20.3225375 3.78458724,19.9621633 3.68024263,19.6459575 C3.62757344,19.4231078 3.60670452,19.2113001 3.56496667,19.0105346 C3.41789045,18.460437 3.24994531,17.825014 3.08299393,17.306035 C3.05119366,17.1474302 3.07206259,17.0199441 3.00945582,16.8623432 C2.9051112,16.4487661 2.72623472,15.9408293 2.63182769,15.5282561 C2.59008984,15.2742876 2.59008984,15.0303575 2.52748307,14.8085115 C2.47481388,14.5113785 2.37046927,14.2473718 2.3078625,13.9612809 C2.29693116,13.8237565 2.3078625,13.7183546 2.3078625,13.622991 C2.27606223,13.4322637 2.26612465,13.2314981 2.23432439,13.0728933 C2.05644166,12.3109881 1.75235164,11.4115584 1.60527542,10.6596914 C1.53173731,10.3846426 1.53173731,10.1095938 1.50093081,9.85562535 C1.46913054,9.65385597 1.45919296,9.44305214 1.39559243,9.25232487 C1.33298566,9.05055548 1.24950997,8.85982821 1.21770971,8.64902438 C1.1869032,8.3318148 1.17597186,8.01460523 1.12330268,7.70743393 C1.12330268,7.67531145 1.12330268,7.66426934 1.11237134,7.63315068 C1.07063349,7.26273823 0.871881841,6.46871047 0.830143995,6.16153918 C0.767537226,5.79112673 0.724805622,5.43175639 0.683067776,5.05030184 C0.683067776,4.81841763 0.631392347,4.57448748 0.610523424,4.32051905 C0.546922897,3.9390645 0.452515864,3.58973244 0.421709358,3.19823961 C0.400840435,2.9231908 0.410778018,2.69030276 0.379971512,2.4784951 C0.369040172,2.31989032 0.348171249,2.08700228 0.170288524,2.08700228 C-0.00759420135,2.08700228 0.0232123041,2.28877166 0.000647786752,2.45741472 C-0.00759420135,2.84890755 0.0649501502,3.37792478 0.0967504139,3.62185493 C0.159357183,4.07658891 0.106687996,4.53132288 0.159357183,4.99709897 C0.191157447,5.2621095 0.274633139,5.5261162 0.306433403,5.76000807 C0.369040172,6.20369994 0.410778018,6.65943775 0.452515864,7.07201096 L0.452515864,7.09309134 C0.473384787,7.304899 0.484316128,7.48458417 0.526053974,7.67531145 C0.526053974,7.69639183 0.526053974,7.70743393 0.546922897,7.72751049 L0.546922897,7.75963298 L0.546922897,7.79175547 C0.57872316,7.876077 0.589654501,7.97144064 0.620461007,8.04572389 C0.662198853,8.20432868 0.65226127,8.34185308 0.693999116,8.52153825 C0.830143995,9.04051721 0.79933749,9.60165693 0.934488611,10.0985517 C1.12330268,10.8393766 1.22864105,11.6334043 1.45919296,12.3852713 C1.51086839,12.5860369 1.45919296,12.8078828 1.51086839,13.0407709 C1.59533784,13.2636206 1.64800703,13.4965087 1.69968246,13.7183546 C1.75235164,14.0044455 1.7106138,14.2895326 1.78315815,14.5645814 C1.84675868,14.8295919 1.93023437,15.0946025 1.99284114,15.3485709 C2.08724817,15.633658 2.08724817,15.9518714 2.17072386,16.2801231 C2.26612465,16.618413 2.37046927,16.9777833 2.4221447,17.2949929 C2.50661415,17.6874896 2.52748307,18.1211432 2.61095876,18.5015939 C2.66362795,18.8519298 2.8623796,19.2434226 2.93591771,19.6138351 C2.93591771,19.719237 2.93591771,19.8467231 2.94684905,19.9842475 C2.99852448,20.2372121 3.07206259,20.5132647 3.13566311,20.7461528 C3.15653204,20.8726351 3.1456007,20.9579604 3.18733854,21.094481 C3.31354584,21.5823413 3.4596283,22.1745997 3.59577318,22.6403758 C3.63751102,22.7779002 3.64844236,22.9264667 3.68024263,23.0639911 C3.78458724,23.3922428 3.87899428,23.6462112 3.92073212,23.8148543 C3.95253239,23.9845012 3.98433265,24.1752284 4.01513916,24.3549136 C4.08867727,24.608882 4.17215296,24.8206897 4.20395322,25.063616 C4.24569107,25.244305 4.27749133,25.4029098 4.32916676,25.582595 C4.38183595,25.7944026 4.47624298,25.9851299 4.55971867,26.1959337 C4.69586355,26.619549 4.72766381,27.0863289 4.86380869,27.5089404 C4.94728439,27.7528706 5.07349168,27.9957969 5.15696737,28.2497653 C5.2205679,28.5037338 5.25137441,28.7888208 5.32491252,29.0638696 C5.45111981,29.4774467 5.60813361,29.9542649 5.75421608,30.3668381 C5.94303014,30.8637328 6.04737476,31.4248725 6.20438856,31.8695682 C6.27892043,32.0703338 6.26798909,32.250019 6.33059586,32.4628305 C6.47767208,32.9165606 6.62375454,33.4465817 6.77083076,33.9113539 C6.85430645,34.1663262 6.85430645,34.4092525 6.95964482,34.6531826 C7.11665862,35.0436716 7.34721054,35.3940075 7.493293,35.7855004 C7.60956271,36.1448707 7.64036922,36.4731224 7.7765141,36.8124162 C7.94445924,37.2460698 8.13227955,37.6696851 8.31115603,38.1344573 C8.41550064,38.4526707 8.46816983,38.7698803 8.58344579,39.0770516 C8.68878416,39.3089358 8.83486662,39.5849885 8.96008016,39.8279148 C9.04454961,40.0507645 9.13895664,40.2836526 9.19063207,40.5054985 C9.2542326,40.6751454 9.43211532,40.9712746 9.5682602,41.2041626 C9.70440508,41.5213722 9.73620535,41.8496239 9.84054996,42.1778756 C10.029364,42.6958507 10.2698535,43.2258718 10.4795365,43.6916478 C10.5739435,43.871333 10.5848749,44.0409799 10.6574192,44.2517837 C10.7836265,44.5800354 11.0042409,44.8350077 11.139392,45.1411751 C11.2765306,45.4373043 11.3182685,45.7555177 11.4335444,46.0406048 C11.6322961,46.4642201 11.7793723,46.7081503 11.7684409,47.3104469 C11.7684409,47.3536115 11.747572,47.4058106 11.6949028,47.4168527 C11.5905582,47.4590134 11.4643509,47.2793283 11.3918066,47.2261254 C11.0668476,46.8878354 11.0350474,46.6017445 10.8253644,46.1460067 C10.5113368,45.4694268 10.1237711,44.8550842 9.8087497,44.1995847 C9.67359858,43.871333 9.60006047,43.4898785 9.43211532,43.1515885 C9.34863963,42.9397808 9.21150099,42.7068928 9.11808772,42.4950851 C8.96008016,42.198956 8.88753581,41.8807426 8.73052201,41.6056937 C8.52083902,41.1830823 8.33202495,40.7173062 8.15414223,40.2836526 C8.06967278,40.0929253 8.06967278,39.9343205 7.99712842,39.785754 C7.91265897,39.5960306 7.80831436,39.4364219 7.71390733,39.2567368 C7.60956271,38.981688 7.5360246,38.6323559 7.42074865,38.346265 C7.17926539,37.8172478 6.90697564,37.2460698 6.68735506,36.68493 C6.51940992,36.1559128 6.41407155,35.6790946 6.22525748,35.1189587 C6.15271313,34.9171893 6.04737476,34.6632209 5.98476799,34.4524171 C5.91222364,34.2396056 5.91222364,34.0810008 5.84862311,33.8912774 C5.67074038,33.4144592 5.45111981,32.8954802 5.25137441,32.4507845 C5.14702979,32.2189003 5.11522953,31.9960505 5.03175384,31.7531242 C4.92641546,31.4670333 4.80120192,31.1277395 4.69586355,30.8326142 C4.55971867,30.47224 4.54978109,30.0275443 4.40270487,29.603929 C4.09861485,28.7687443 3.70111155,27.8582725 3.43875938,26.9377624 C3.39702153,26.7259548 3.41789045,26.5141471 3.35528368,26.3023395 C3.20820746,25.8476055 3.05119366,25.3386648 2.92598012,24.8528122 C2.75803498,24.3227911 2.78884149,23.7516131 2.61095876,23.2115538 C2.40127577,22.5349739 2.17072386,21.8363097 1.95110329,21.1697681 C1.88849652,20.9469183 1.91930303,20.7461528 1.85669626,20.5343451 C1.7106138,19.9942858 1.53173731,19.3909853 1.35385459,18.9041288 C1.25944756,18.6712408 1.25944756,18.4072341 1.17597186,18.1843843 C1.07063349,17.8982934 0.79933749,18.0046992 0.809275072,18.3229126 C0.830143995,18.5979614 0.934488611,18.9573317 0.966288874,19.0948561 C0.998089138,19.3066638 0.998089138,19.497391 1.03982698,19.6981566 C1.11237134,20.0585308 1.22864105,20.3757403 1.33298566,20.6929499 C1.43832404,21.0533241 1.43832404,21.3494533 1.54266865,21.7198657 C1.60527542,21.8784705 1.67881353,22.0902782 1.7106138,22.259925 C1.82588975,22.6082533 1.82588975,22.9897078 1.95110329,23.2968791 C2.03557274,23.5608858 2.11904843,23.8580189 2.19159278,24.1330677 C2.24426197,24.3227911 2.23432439,24.4813959 2.29693116,24.6410045 C2.37046927,24.9582141 2.47481388,25.296504 2.58015226,25.5926332 C2.63182769,25.7944026 2.61095876,25.9530074 2.65269661,26.1226543 C2.72623472,26.3766227 2.78884149,26.6416332 2.8623796,26.8634792 C2.92598012,27.1064055 2.92598012,27.4246189 2.97765555,27.6675452 C3.13566311,28.1122409 3.29267691,28.578017 3.43875938,28.9905902 C3.59577318,29.4453242 3.60670452,29.9432228 3.78458724,30.4089988 C4.08867727,31.2552257 4.35003568,32.2189003 4.66505704,33.054085 C4.74853274,33.2769348 4.71673247,33.4987807 4.79027058,33.7326726 C4.87474003,34.0920429 4.94728439,34.4524171 5.07349168,34.8017492 C5.14702979,34.9703922 5.25137441,35.1500774 5.32491252,35.3197243 C5.41931955,35.5204898 5.43025089,35.7222592 5.53459551,35.9441051 C5.60813361,36.1127482 5.71247823,36.2934372 5.775085,36.4620803 C5.88042337,36.7381329 5.84862311,37.0663846 5.95396148,37.3093109 C6.02650583,37.5211186 6.13184421,37.7329262 6.20438856,37.9447339 C6.29978935,38.1766181 6.29978935,38.4205482 6.38326504,38.6323559 C6.47767208,38.8331215 6.61381695,39.0238487 6.68735506,39.1934956 C6.77083076,39.3842229 6.79169968,39.5749502 6.86523779,39.7646736 C6.9387759,39.9654392 7.04312051,40.1782507 7.13752755,40.3689779 C7.22100324,40.5687397 7.24187216,40.8016277 7.32634161,41.0355196 C7.39987972,41.2142009 7.5360246,41.4159703 7.60956271,41.6056937 C7.68210706,41.8175014 7.68210706,42.0614316 7.7765141,42.2832775 C7.89179005,42.6225713 8.0905417,42.886578 8.23761792,43.2258718 C8.33202495,43.4376794 8.34196253,43.7016861 8.44730091,43.9345742 C8.57251445,44.2196612 8.73052201,44.4957139 8.85573554,44.7496823 C9.01274935,45.1100565 9.16976315,45.4905072 9.29597044,45.8187589 C9.5682602,46.4331015 9.67359858,47.0996431 9.92501941,47.7029436 C10.1555713,48.1255551 10.4069922,48.5702508 10.6156814,48.982824 C10.7210198,49.2267541 10.75282,49.4807226 10.8671022,49.7236489 C11.0042409,49.9986977 11.2029925,50.2115092 11.3182685,50.486558 C11.4226131,50.7505647 11.4961512,51.0045331 11.6014896,51.2685398 C11.747572,51.5977953 11.9781239,51.9150049 12.1252002,52.2221762 C12.2086758,52.4129035 12.261345,52.613669 12.3338894,52.7722738 C12.5018345,53.1527245 12.7850556,53.4388154 12.9321318,53.82027 C13.0255451,54.0421159 13.1100146,54.2860461 13.1825589,54.5289724 C13.3823043,54.8993848 13.6436627,55.2386786 13.8434082,55.6090911 C13.979553,55.9152585 14.0630287,56.2013495 14.2200425,56.4763983 C14.4823947,56.8789332 14.6503398,57.153982 14.9007669,57.5775973 C15.0687121,57.8315657 15.2893264,58.244139 15.4145399,58.5081457 C15.5407472,58.815317 15.7703054,59.0371629 15.907444,59.3232538 C16.02272,59.5983026 16.2006027,59.8944318 16.3476789,60.1704844 C16.5354992,60.4766519 16.6935068,60.6884596 16.8713895,60.9524663 C17.1854171,61.4182424 17.3632998,61.9161409 17.6673899,62.3929591 C17.8770729,62.7091649 18.0966934,63.0384204 18.3381767,63.3445878 C18.9354254,64.1707381 19.7840949,65.6744721 20.1607293,66.1814051 C20.4648193,66.5728979 20.7162401,67.0697927 20.9885299,67.4733314 C21.2091442,67.8106176 21.4913716,68.1398731 21.7119859,68.425964 C21.9107375,68.7010128 22.0578138,68.9650195 22.2356965,69.2400683 L22.4036416,69.4408339 C30.0943367,79.3054493 38.0046523,85.8564293 44.6996015,90.1437777 L44.6787326,90.1437777 C48.2304245,92.3762906 50.1364528,93.0217519 50.1364528,93.0217519 C50.5766877,93.2225174 50.2527226,93.539727 50.0430396,93.6882935 L10.3443854,119.333081 C10.2281157,119.406361 9.91408807,119.629211 10.029364,119.893217 C10.1347024,120.083945 10.543137,119.967501 10.6474817,119.935378 C42.498427,108.64332 65.6122499,99.3609242 79.7464734,92.5870945 C94.0695109,85.7088666 98.878307,81.7808886 98.3754654,79.8344665 M13.6019249,41.8917847 C13.5293805,41.7432181 13.4548487,41.5745751 13.3922419,41.4260086 C13.3196976,41.2463234 13.3196976,41.0666382 13.2461595,40.9180717 C12.9947386,40.3358516 12.7224489,39.7225129 12.4501591,39.1613731 C12.3448207,38.9395272 12.2086758,38.4948315 12.3030829,38.2087406 C12.3130205,38.1665798 12.4074275,38.1987023 12.4392278,38.2087406 C12.5227035,38.3041042 12.5853102,38.346265 12.6598421,38.4426325 C12.7224489,38.5159119 12.7323864,38.6002334 12.7850556,38.6955971 C12.9003316,38.8863243 13.067283,39.0870899 13.1726213,39.2878554 C13.3823043,39.7536315 13.4240422,40.2515301 13.6337252,40.7062641 C13.76987,40.992355 13.9894906,41.2463234 14.1365668,41.5424526 C14.1991736,41.7020612 14.2409114,41.860666 14.304512,42.0403512 C14.3353185,42.1778756 14.3253809,42.3364804 14.3353185,42.4418823 C14.3353185,42.5904488 14.3253809,42.6958507 14.2617804,42.6958507 C13.885146,42.6747703 13.76987,42.1778756 13.6019249,41.8917847 M15.2783951,54.1906824 C15.2575261,54.2428815 15.2366572,54.2860461 15.1531815,54.2860461 C14.7338155,54.2639619 14.608602,53.639581 14.4297255,53.3334135 C14.2617804,53.1105638 14.1365668,52.8254767 13.9894906,52.5915848 C13.8742147,52.4129035 13.7281322,52.2322145 13.6337252,52.0525293 C13.5184492,51.7985609 13.4866489,51.5345542 13.3296351,51.3217427 C13.256097,51.2052987 13.1199522,51.0998968 13.046414,50.9834527 C12.8267935,50.6772853 12.6171105,50.3480298 12.4501591,49.9565369 C12.4183588,49.7979321 12.3974899,49.6714498 12.3448207,49.5118412 C12.2712826,49.279957 12.166938,49.0149465 12.0834623,48.7609781 C12.051662,48.6234537 12.0198618,48.3795235 12.051662,48.295202 C12.0625934,48.2530412 12.0834623,48.2209187 12.1142688,48.2319608 C12.4183588,48.295202 12.7532554,49.0892297 12.9003316,49.3642785 C13.0782143,49.6814881 13.3505041,49.9254183 13.5184492,50.2526661 C13.6337252,50.5598374 13.675463,50.9192078 13.8434082,51.2052987 C13.9586841,51.4171063 14.1574358,51.5977953 14.2935806,51.809603 C14.4714634,52.0625676 14.5877331,52.43298 14.7338155,52.7190709 C14.8699604,53.0583647 15.1005123,53.3223714 15.2366572,53.6506231 C15.2893264,53.7981858 15.3201329,54.0421159 15.2783951,54.1906824 M24.1953877,52.3697389 C24.0065737,52.3376164 23.9012353,52.2221762 23.7760218,52.1258087 C23.4510628,51.8828824 23.1787731,51.4813513 23.1678417,50.9192078 C23.1678417,50.8459283 23.1787731,50.8248479 23.2205109,50.8248479 C23.6180142,50.8248479 24.0274426,51.4281484 24.1844564,51.7242776 C24.2162567,51.8296795 24.3206013,52.0525293 24.2997324,52.2010958 C24.2997324,52.3064977 24.2579945,52.3486585 24.1953877,52.3697389 M26.8666099,52.4761446 C26.6042577,52.5604661 25.9762025,51.8296795 25.7983198,51.5345542 C25.4524919,51.0366556 25.127533,50.486558 24.7608362,49.9986977 C24.4358772,49.5329216 24.079118,49.2267541 23.9857048,48.4648489 C23.9857048,48.3694852 23.923098,48.1255551 23.9857048,48.1255551 C24.3414702,48.1576776 24.6872981,48.7920967 24.8552432,49.0460651 C24.9913881,49.2267541 25.1374706,49.3953972 25.2736154,49.5760862 C25.4206917,49.851135 25.5150987,50.1793867 25.6929814,50.4333551 C25.9135957,50.7505647 26.1848917,51.0256135 26.426375,51.3438269 C26.5525823,51.51247 26.7205274,51.6610365 26.7930718,51.8828824 C26.845741,52.0103685 26.9610169,52.43298 26.8666099,52.4761446 M36.2337751,57.7141179 C35.8670783,57.7562787 35.4169058,57.1961428 35.2380293,56.921094 C35.1754225,56.8468107 34.9657396,56.402115 35.0283463,56.3388739 C35.1018844,56.2645906 35.531188,56.4131571 35.6573953,56.5085208 C35.9396226,56.7414088 36.1811059,57.0586184 36.3271883,57.6187543 C36.3271883,57.6930375 36.2655753,57.7141179 36.2337751,57.7141179" id="Fill-1"/>
            <path d="M250.586434,110.991273 L224.706982,56.5807963 L198.963674,110.991273 C195.128761,118.431644 190.864545,118.601291 190.864545,118.601291 L190.497848,119.002822 L208.100288,119.002822 L207.680922,118.601291 C207.680922,118.601291 202.766787,117.61754 205.889176,110.991273 L210.49922,101.391668 L232.553697,101.391668 L237.017659,110.991273 C240.140047,117.61754 235.225913,118.601291 235.225913,118.601291 L234.838347,119.002822 L259.083067,119.002822 L258.663701,118.601291 C258.663701,118.601291 254.200732,118.569169 250.586434,110.991273 L250.586434,110.991273 Z M212.920015,96.3333797 L222.002965,77.0498483 L230.280972,96.3333797 L212.920015,96.3333797 Z M168.16015,113.394436 C155.492714,113.394436 146.764535,105.001432 146.764535,89.7081164 C146.764535,74.4037583 155.251231,64.433741 168.621254,64.433741 C182.482194,64.433741 187.480798,75.3242684 187.480798,75.3242684 L187.825632,75.6103593 L187.825632,62.7302452 C187.825632,62.7302452 179.516819,58.634628 167.667246,58.634628 C146.314363,58.634628 132.902602,71.9483956 132.902602,89.7823997 C132.902602,104.144164 143.967106,119.998619 166.818577,119.998619 C175.420548,119.998619 185.457506,116.558502 185.457506,116.558502 L190.078482,100.608682 L189.564709,100.958014 C189.564709,100.958014 182.083697,113.394436 168.16015,113.394436 L168.16015,113.394436 Z M477.528022,59.5872605 L477.947388,59.9787533 C477.947388,59.9787533 483.133812,61.4593993 479.21443,67.6198903 C477.308401,70.6253506 471.513797,78.9972742 466.233959,87.1041872 C460.921328,78.9972742 455.222124,70.5721477 453.29324,67.5777295 C449.396714,61.397162 454.613944,59.9787533 454.613944,59.9787533 L455.012441,59.5872605 L430.75679,59.5872605 L431.144356,59.9787533 C431.144356,59.9787533 434.65431,60.5820538 439.254417,67.5777295 C441.192246,70.5410291 451.030452,84.4269786 456.332152,92.5439299 L456.332152,111.023395 C456.332152,118.040151 452.402832,118.643452 452.402832,118.643452 L451.994398,119.034945 L473.054122,119.034945 L472.634756,118.643452 C472.634756,118.643452 468.716368,118.040151 468.716368,111.023395 C468.716368,108.060096 468.685561,100.640805 468.685561,92.5439299 C473.987261,84.4269786 483.835405,70.594232 485.795097,67.6198903 C490.352472,60.6242146 495.580634,59.9787533 495.580634,59.9787533 L496,59.5872605 L477.528022,59.5872605 Z M435.984952,110.991273 L410.1055,56.5807963 L384.362193,110.991273 C380.528274,118.431644 376.283932,118.601291 376.283932,118.601291 L375.875498,119.002822 L393.457068,119.002822 L393.089378,118.601291 C393.089378,118.601291 388.176237,117.61754 391.277757,110.991273 L395.90867,101.391668 L417.96414,101.391668 L422.416177,110.991273 C425.570366,117.61754 420.635363,118.601291 420.635363,118.601291 L420.237859,119.002822 L444.481585,119.002822 L444.062219,118.601291 C444.062219,118.601291 439.599251,118.569169 435.984952,110.991273 L435.984952,110.991273 Z M398.318534,96.3333797 L407.402478,77.0498483 L415.690422,96.3333797 L398.318534,96.3333797 Z M259.010522,59.5872605 C252.084027,59.5872605 251.100207,58.9096768 251.100207,58.9096768 L251.067413,70.7528367 L251.486779,70.4356272 C251.486779,70.4356272 254.650905,65.3241362 261.566469,65.3241362 L271.457344,65.3241362 L271.457344,111.023395 C271.457344,118.040151 267.538956,118.643452 267.538956,118.643452 L267.108658,119.034945 L288.179314,119.034945 L287.77088,118.643452 C287.77088,118.643452 283.84156,118.040151 283.84156,111.023395 L283.904166,65.3241362 L293.543621,65.3241362 C300.489991,65.3241362 303.822063,70.4356272 303.822063,70.4356272 L304.22056,70.7528367 L304.240435,58.9096768 C304.240435,58.9096768 303.256614,59.5872605 296.320182,59.5872605 L259.010522,59.5872605 Z M369.494576,111.023395 C369.494576,104.016677 369.484638,74.4890837 369.484638,67.4823659 C369.484638,60.4656098 373.413959,59.9677112 373.413959,59.9677112 L373.811462,59.5762184 L352.761675,59.5762184 L353.139303,59.9677112 C353.139303,59.9677112 357.078561,60.4656098 357.078561,67.4823659 C357.078561,74.4890837 357.110361,84.5845795 357.110361,84.5845795 L328.162183,84.5845795 L328.162183,67.4823659 C328.162183,60.4656098 332.12231,59.9787533 332.12231,59.9787533 L332.488013,59.5872605 L311.449157,59.5872605 L311.868523,59.9787533 C311.868523,59.9787533 315.797843,60.4656098 315.797843,67.4823659 L315.797843,111.023395 C315.797843,118.040151 311.868523,118.643452 311.868523,118.643452 L311.449157,119.034945 L332.488013,119.034945 L332.12231,118.643452 C332.12231,118.643452 328.162183,118.040151 328.162183,111.023395 L328.162183,90.4067806 L357.110361,90.4067806 L357.110361,111.023395 C357.110361,118.040151 353.202903,118.643452 353.202903,118.643452 L352.794469,119.034945 L373.843262,119.034945 L373.444765,118.643452 C373.444765,118.643452 369.494576,118.040151 369.494576,111.023395 L369.494576,111.023395 Z" id="Fill-3"/>
        </g>
    </g>
</svg>